Coordinates
nRows=203
nColumns=2
inDegrees=yes
endheader
time	ankle_angle_r	
4.45766	 -4.875423	
4.49093	 -4.822451	
4.52419	 -4.837903	
4.55746	 -4.799419	
4.59073	 -4.798262	
4.62399	 -4.760742	
4.65726	 -4.816609	
4.69052	 -4.745483	
4.72379	 -4.799903	
4.75706	 -4.821777	
4.79032	 -4.858717	
4.82359	 -4.828103	
4.85685	 -4.818349	
4.89012	 -4.800386	
4.92339	 -4.788412	
4.95665	 -4.840417	
4.98992	 -4.764317	
5.02319	 -4.785514	
5.05645	 -4.776001	
5.08972	 -4.776001	
5.12298	 -4.770545	
5.15625	 -4.724866	
5.18952	 -4.826512	
5.22278	 -4.837036	
5.25605	 -4.791260	
5.28931	 -4.832064	
5.32258	 -4.887688	
5.35585	 -4.745483	
5.38911	 -4.781896	
5.42238	 -4.791260	
5.45565	 -4.800237	
5.48891	 -4.765134	
5.52218	 -4.821777	
5.55544	 -4.749682	
5.58871	 -4.776001	
5.62198	 -4.852295	
5.65524	 -4.802610	
5.68851	 -4.859930	
5.72177	 -4.882813	
5.75504	 -4.791260	
5.78831	 -4.772479	
5.82157	 -4.794685	
5.85484	 -4.803190	
5.8881	 -4.772769	
5.92137	 -4.760742	
5.95464	 -4.852295	
5.9879	 -4.794201	
6.02117	 -4.895226	
6.05444	 -4.821777	
6.0877	 -4.837036	
6.12097	 -4.854850	
6.15423	 -4.806519	
6.1875	 -4.839397	
6.22077	 -4.867554	
6.25403	 -4.797764	
6.2873	 -4.856438	
6.32056	 -4.898071	
6.35383	 -4.777879	
6.3871	 -4.871117	
6.42036	 -4.886182	
6.45363	 -4.791260	
6.4869	 -4.852295	
6.52016	 -4.809308	
6.55343	 -4.776001	
6.58669	 -4.806519	
6.61996	 -4.778210	
6.65323	 -4.821777	
6.68649	 -4.852295	
6.71976	 -4.852295	
6.75302	 -4.836318	
6.78629	 -4.868796	
6.81956	 -4.837561	
6.85282	 -4.761170	
6.88609	 -4.806519	
6.91935	 -4.791494	
6.95262	 -4.730225	
6.98589	 -4.760783	
7.01915	 -4.852351	
7.05242	 -4.882508	
7.08569	 -4.897324	
7.11895	 -4.913330	
7.15222	 -4.790375	
7.18548	 -4.852834	
7.21875	 -4.897436	
7.25202	 -4.791992	
7.28528	 -4.776001	
7.31855	 -4.819000	
7.35181	 -4.777023	
7.38508	 -4.793498	
7.41835	 -4.867554	
7.45161	 -4.730225	
7.48488	 -4.837036	
7.51815	 -4.884318	
7.55141	 -4.791260	
7.58468	 -4.840435	
7.61794	 -4.806519	
7.65121	 -4.808411	
7.68448	 -4.806519	
7.71774	 -4.828035	
7.75101	 -4.745483	
7.78427	 -4.808798	
7.81754	 -4.796012	
7.85081	 -4.849822	
7.88407	 -4.867554	
7.91734	 -4.860293	
7.9506	 -4.757979	
7.98387	 -4.799839	
8.01714	 -4.858207	
8.0504	 -4.849242	
8.08367	 -4.845996	
8.11694	 -4.776001	
8.1502	 -4.703050	
8.18347	 -4.867554	
8.21673	 -4.752556	
8.25	 -4.787627	
8.28327	 -4.871284	
8.31653	 -4.779828	
8.3498	 -4.810441	
8.38306	 -4.795280	
8.41633	 -4.734341	
8.4496	 -4.799686	
8.48286	 -4.802209	
8.51613	 -4.812964	
8.5494	 -4.740980	
8.58266	 -4.884272	
8.61593	 -4.750180	
8.64919	 -4.776001	
8.68246	 -4.776001	
8.71573	 -4.771014	
8.74899	 -4.684448	
8.78226	 -4.857475	
8.81552	 -4.720243	
8.84879	 -4.735598	
8.88206	 -4.795578	
8.91532	 -4.841161	
8.94859	 -4.776001	
8.98185	 -4.791260	
9.01512	 -4.730225	
9.04839	 -4.760742	
9.08165	 -4.830986	
9.11492	 -4.806519	
9.14819	 -4.662946	
9.18145	 -4.815437	
9.21472	 -4.782438	
9.24798	 -4.839228	
9.28125	 -4.769371	
9.31452	 -4.767469	
9.34778	 -4.814954	
9.38105	 -4.837036	
9.41431	 -4.791260	
9.44758	 -4.876730	
9.48085	 -4.821777	
9.51411	 -4.799212	
9.54738	 -4.791260	
9.58065	 -4.859796	
9.61391	 -4.821842	
9.64718	 -4.867425	
9.68044	 -4.875022	
9.71371	 -4.844923	
9.74698	 -4.837036	
9.78024	 -4.898071	
9.81351	 -4.767824	
9.84677	 -4.889797	
9.88004	 -4.808001	
9.91331	 -4.767534	
9.94657	 -4.867554	
9.97984	 -4.852295	
10.0131	 -4.852295	
10.0464	 -4.867554	
10.0796	 -4.867554	
10.1129	 -4.785048	
10.1462	 -4.879727	
10.1794	 -4.934607	
10.2127	 -4.806519	
10.246	 -4.812343	
10.2792	 -4.888540	
10.3125	 -4.800887	
10.3458	 -4.800984	
10.379	 -4.785822	
10.4123	 -4.714966	
10.4456	 -4.776001	
10.4788	 -4.765890	
10.5121	 -4.684448	
10.5454	 -4.710011	
10.5786	 -4.780859	
10.6119	 -4.710205	
10.6452	 -4.797190	
10.6784	 -4.869110	
10.7117	 -4.745483	
10.745	 -4.795634	
10.7782	 -4.854721	
10.8115	 -4.791260	
10.8448	 -4.776001	
10.878	 -4.783285	
10.9113	 -4.867554	
10.9446	 -4.875224	
10.9778	 -4.840734	
11.0111	 -4.810119	
11.0444	 -4.864049	
11.0776	 -4.825185	
11.1109	 -4.772690	
11.1442	 -4.861125	
11.1774	 -4.879695	
